<svg width="16" height="16" viewBox="0 0 16 16" fill="none" xmlns="http://www.w3.org/2000/svg">
<path d="M15.47 7.83C14.8989 6.33541 13.903 5.04056 12.605 4.105L15 1.705L14.295 1L1 14.295L1.705 15L4.255 12.455C5.39339 13.118 6.68283 13.4778 8 13.5C9.62974 13.4387 11.2058 12.9012 12.5334 11.954C13.861 11.0067 14.8819 9.69118 15.47 8.17C15.5097 8.06015 15.5097 7.93985 15.47 7.83ZM8 11.25C7.3108 11.2497 6.63977 11.0289 6.085 10.62L7 9.715C7.3794 9.92288 7.81597 10.0021 8.24423 9.94087C8.67249 9.87961 9.06933 9.68114 9.37524 9.37524C9.68114 9.06933 9.87961 8.67248 9.94087 8.24423C10.0021 7.81597 9.92288 7.3794 9.715 7L10.62 6.095C10.9722 6.5788 11.1838 7.15058 11.2314 7.74713C11.279 8.34368 11.1606 8.94176 10.8895 9.47526C10.6183 10.0088 10.2049 10.4569 9.695 10.7701C9.18506 11.0833 8.59844 11.2494 8 11.25ZM2.265 10.905L4.765 8.405C4.75218 8.2704 4.74717 8.13518 4.75 8C4.75132 7.13845 5.09416 6.31257 5.70336 5.70336C6.31257 5.09416 7.13845 4.75132 8 4.75C8.13203 4.75088 8.26391 4.75922 8.395 4.775L10.285 2.89C9.5494 2.63744 8.77773 2.50573 8 2.5C6.37026 2.56129 4.79419 3.09878 3.4666 4.04604C2.13901 4.99331 1.11808 6.30882 0.530001 7.83C0.490285 7.93985 0.490285 8.06015 0.530001 8.17C0.914529 9.19106 1.50512 10.122 2.265 10.905Z" fill="#485A66"/>
</svg>
