<svg width="16" height="16" viewBox="0 0 16 16" fill="none" xmlns="http://www.w3.org/2000/svg">
<path fill-rule="evenodd" clip-rule="evenodd" d="M14.5 7.99999L14.915 7.79199V7.78999L14.912 7.78699L14.906 7.77499L14.885 7.73499L14.805 7.59099C14.7074 7.4226 14.6036 7.25782 14.494 7.09699C14.1281 6.55994 13.7075 6.06228 13.239 5.61199C12.113 4.53199 10.38 3.42999 7.99999 3.42999C5.62199 3.42999 3.88799 4.53099 2.76199 5.61199C2.29346 6.06228 1.87287 6.55994 1.50699 7.09699C1.35853 7.31604 1.22103 7.54232 1.09499 7.77499L1.08899 7.78699L1.08699 7.78999V7.79099C1.08699 7.79099 1.08599 7.79199 1.50099 7.99999L1.08599 7.79099C1.05391 7.85581 1.03722 7.92717 1.03722 7.99949C1.03722 8.07182 1.05391 8.14317 1.08599 8.20799L1.08499 8.20999L1.08799 8.21299L1.09399 8.22499C1.12518 8.28747 1.15853 8.34884 1.19399 8.40899C1.62459 9.1364 2.15134 9.80241 2.75999 10.389C3.88699 11.469 5.61999 12.569 7.99999 12.569C10.379 12.569 12.113 11.469 13.24 10.388C13.7077 9.93717 14.1279 9.43956 14.494 8.90299C14.6342 8.69654 14.7647 8.48364 14.885 8.26499L14.906 8.22499L14.912 8.21299L14.914 8.20999V8.20899C14.914 8.20899 14.915 8.20799 14.5 7.99999ZM14.5 7.99999L14.915 8.20899C14.9471 8.14417 14.9638 8.07282 14.9638 8.00049C14.9638 7.92816 14.9471 7.85681 14.915 7.79199L14.5 7.99999ZM7.93999 6.46399C7.53262 6.46399 7.14193 6.62582 6.85388 6.91388C6.56582 7.20193 6.40399 7.59262 6.40399 7.99999C6.40399 8.40736 6.56582 8.79805 6.85388 9.08611C7.14193 9.37416 7.53262 9.53599 7.93999 9.53599C8.34737 9.53599 8.73805 9.37416 9.02611 9.08611C9.31417 8.79805 9.47599 8.40736 9.47599 7.99999C9.47599 7.59262 9.31417 7.20193 9.02611 6.91388C8.73805 6.62582 8.34737 6.46399 7.93999 6.46399ZM5.47799 7.99999C5.47799 7.3465 5.73759 6.71977 6.19968 6.25768C6.66177 5.79559 7.2885 5.53599 7.94199 5.53599C8.59549 5.53599 9.22222 5.79559 9.68431 6.25768C10.1464 6.71977 10.406 7.3465 10.406 7.99999C10.406 8.65349 10.1464 9.28021 9.68431 9.7423C9.22222 10.2044 8.59549 10.464 7.94199 10.464C7.2885 10.464 6.66177 10.2044 6.19968 9.7423C5.73759 9.28021 5.47799 8.65349 5.47799 7.99999Z" fill="#485A66"/>
</svg>
